<svg width="24" height="24" viewBox="0 0 24 24" fill="none" xmlns="http://www.w3.org/2000/svg">
<g filter="url(#filter0_d)">
<path d="M3.77778 9.11111H7.33333C8.31111 9.11111 9.11111 8.31111 9.11111 7.33333V3.77778C9.11111 2.8 8.31111 2 7.33333 2H3.77778C2.8 2 2 2.8 2 3.77778V7.33333C2 8.31111 2.8 9.11111 3.77778 9.11111ZM3.77778 18H7.33333C8.31111 18 9.11111 17.2 9.11111 16.2222V12.6667C9.11111 11.6889 8.31111 10.8889 7.33333 10.8889H3.77778C2.8 10.8889 2 11.6889 2 12.6667V16.2222C2 17.2 2.8 18 3.77778 18ZM10.8889 3.77778V7.33333C10.8889 8.31111 11.6889 9.11111 12.6667 9.11111H16.2222C17.2 9.11111 18 8.31111 18 7.33333V3.77778C18 2.8 17.2 2 16.2222 2H12.6667C11.6889 2 10.8889 2.8 10.8889 3.77778ZM12.6667 18H16.2222C17.2 18 18 17.2 18 16.2222V12.6667C18 11.6889 17.2 10.8889 16.2222 10.8889H12.6667C11.6889 10.8889 10.8889 11.6889 10.8889 12.6667V16.2222C10.8889 17.2 11.6889 18 12.6667 18Z" fill="white"/>
</g>
<defs>
<filter id="filter0_d" x="0" y="0" width="24" height="24" filterUnits="userSpaceOnUse" color-interpolation-filters="sRGB">
<feFlood flood-opacity="0" result="BackgroundImageFix"/>
<feColorMatrix in="SourceAlpha" type="matrix" values="0 0 0 0 0 0 0 0 0 0 0 0 0 0 0 0 0 0 127 0" result="hardAlpha"/>
<feOffset dx="2" dy="2"/>
<feGaussianBlur stdDeviation="2"/>
<feColorMatrix type="matrix" values="0 0 0 0 0 0 0 0 0 0 0 0 0 0 0 0 0 0 0.5 0"/>
<feBlend mode="normal" in2="BackgroundImageFix" result="effect1_dropShadow"/>
<feBlend mode="normal" in="SourceGraphic" in2="effect1_dropShadow" result="shape"/>
</filter>
</defs>
</svg>
