<svg width="24" height="24" viewBox="0 0 24 24" fill="none" xmlns="http://www.w3.org/2000/svg">
<circle cx="12" cy="11.9998" r="11" fill="white" stroke="black" stroke-width="2"/>
<path d="M13.3334 12.3331C14.8062 12.3331 16.0001 11.1392 16.0001 9.66642C16.0001 8.19366 14.8062 6.99976 13.3334 6.99976C11.8607 6.99976 10.6667 8.19366 10.6667 9.66642C10.6667 11.1392 11.8607 12.3331 13.3334 12.3331Z" fill="black"/>
<path d="M13.3333 17.6664C13.3333 17.6664 18.6667 17.6664 18.6667 16.3331C18.6667 14.7331 16.0667 12.9998 13.3333 12.9998C10.6 12.9998 8 14.7331 8 16.3331C8 17.6664 13.3333 17.6664 13.3333 17.6664ZM7.33333 10.9998V8.99976H6V10.9998H4V12.3331H6V14.3331H7.33333V12.3331H9.33333V10.9998H7.33333Z" fill="black"/>
</svg>
