<svg width="22" height="23" viewBox="0 0 22 23" fill="none" xmlns="http://www.w3.org/2000/svg">
<path fill-rule="evenodd" clip-rule="evenodd" d="M17.8214 18.4834C14.7652 21.5399 10.2398 22.2003 6.53642 20.4876C5.98971 20.2675 5.54148 20.0896 5.11537 20.0896C3.92849 20.0966 2.45117 21.2474 1.68336 20.4806C0.915554 19.7127 2.06726 18.2342 2.06726 17.0401C2.06726 16.614 1.89642 16.1737 1.67632 15.626C-0.0371693 11.9232 0.624109 7.39626 3.68026 4.34078C7.5816 0.438006 13.92 0.438006 17.8214 4.33978C21.7297 8.24858 21.7227 14.5817 17.8214 18.4834Z" stroke="#3A3A3A" stroke-width="1.5" stroke-linecap="round" stroke-linejoin="round"/>
<path d="M14.6893 11.8267H14.6983" stroke="#3A3A3A" stroke-width="2" stroke-linecap="round" stroke-linejoin="round"/>
<path d="M10.6804 11.8267H10.6894" stroke="#3A3A3A" stroke-width="2" stroke-linecap="round" stroke-linejoin="round"/>
<path d="M6.6714 11.8267H6.6804" stroke="#3A3A3A" stroke-width="2" stroke-linecap="round" stroke-linejoin="round"/>
</svg>
