<svg width="16" height="15" viewBox="0 0 16 15" fill="none" xmlns="http://www.w3.org/2000/svg">
<path d="M15.7898 7.44548C15.2187 5.95089 14.2228 4.65604 12.9248 3.72048L15.3198 1.32048L14.6148 0.615479L1.31982 13.9105L2.02482 14.6155L4.57482 12.0705C5.71304 12.7338 7.00259 13.0937 8.31982 13.1155C9.94957 13.0542 11.5256 12.5167 12.8532 11.5694C14.1808 10.6222 15.2017 9.30665 15.7898 7.78548C15.8295 7.67562 15.8295 7.55533 15.7898 7.44548ZM8.31982 10.8655C7.63063 10.8652 6.9596 10.6444 6.40482 10.2355L7.31982 9.33048C7.69922 9.53835 8.1358 9.61761 8.56405 9.55635C8.99231 9.49509 9.38916 9.29662 9.69506 8.99072C10.001 8.68481 10.1994 8.28796 10.2607 7.85971C10.322 7.43145 10.2427 6.99488 10.0348 6.61548L10.9398 5.71048C11.2921 6.19428 11.5037 6.76606 11.5512 7.36261C11.5988 7.95916 11.4804 8.55724 11.2093 9.09074C10.9382 9.62423 10.5248 10.0724 10.0148 10.3856C9.50488 10.6988 8.91827 10.8649 8.31982 10.8655Z" fill="white"/>
<path d="M2.58486 10.5205L5.08486 8.02048C5.07185 7.88589 5.06685 7.75066 5.06986 7.61548C5.07118 6.75393 5.41401 5.92805 6.02322 5.31884C6.63243 4.70964 7.45831 4.3668 8.31986 4.36548C8.45189 4.36618 8.58378 4.37453 8.71486 4.39048L10.6049 2.50548C9.86927 2.25283 9.0976 2.12112 8.31986 2.11548C6.69011 2.17676 5.11405 2.71426 3.78646 3.66152C2.45886 4.60879 1.43794 5.9243 0.849856 7.44548C0.810139 7.55533 0.810139 7.67562 0.849856 7.78548C1.23387 8.8068 1.82452 9.73788 2.58486 10.5205Z" fill="white"/>
</svg>
