<svg width="65" height="64" viewBox="0 0 65 64" fill="none" xmlns="http://www.w3.org/2000/svg">
<path d="M32.4999 21.0698C26.8002 21.0698 21.9839 25.8862 21.9839 31.5859C21.9839 37.2856 26.8002 42.1019 32.4999 42.1019C38.1996 42.1019 43.016 37.2856 43.016 31.5859C43.016 25.8862 38.1996 21.0698 32.4999 21.0698ZM32.4999 36.8439C29.7 36.8439 27.2419 34.3858 27.2419 31.5859C27.2419 28.786 29.7 26.3278 32.4999 26.3278C35.2998 26.3278 37.758 28.786 37.758 31.5859C37.758 34.3858 35.2998 36.8439 32.4999 36.8439Z" fill="black"/>
<path d="M55.7019 11.4126H48.2672L40.4845 3.62998C40.218 3.36248 39.9012 3.15034 39.5524 3.00577C39.2035 2.8612 38.8295 2.78705 38.4519 2.7876H26.9519C26.5743 2.78705 26.2003 2.8612 25.8515 3.00577C25.5026 3.15034 25.1858 3.36248 24.9193 3.62998L17.1367 11.4126H9.7019C6.53078 11.4126 3.9519 13.9915 3.9519 17.1626V48.7876C3.9519 51.9587 6.53078 54.5376 9.7019 54.5376H55.7019C58.873 54.5376 61.4519 51.9587 61.4519 48.7876V17.1626C61.4519 13.9915 58.873 11.4126 55.7019 11.4126ZM9.7019 48.7876V17.1626H18.3269C19.0917 17.1626 19.8219 16.8607 20.3595 16.3202L28.1422 8.5376H37.2617L45.0443 16.3202C45.3108 16.5877 45.6276 16.7999 45.9765 16.9444C46.3253 17.089 46.6993 17.1631 47.0769 17.1626H55.7019L55.7077 48.7876H9.7019Z" fill="black"/>
</svg>
