<svg width="13" height="13" viewBox="0 0 13 13" fill="none" xmlns="http://www.w3.org/2000/svg">
<mask id="path-1-inside-1_890:4440" fill="white">
<path d="M3.59982 6.41357C3.53723 6.41348 3.47531 6.42645 3.41802 6.45165C3.36073 6.47684 3.30932 6.51371 3.26708 6.5599C3.22484 6.60609 3.19271 6.66059 3.17272 6.7199C3.15274 6.77921 3.14535 6.84204 3.15102 6.90437C3.31902 8.74877 4.68102 10.3136 6.74982 10.3136C8.81862 10.3136 10.18 8.74877 10.3486 6.90437C10.3543 6.84204 10.3469 6.77921 10.3269 6.7199C10.3069 6.66059 10.2748 6.60609 10.2326 6.5599C10.1903 6.51371 10.1389 6.47684 10.0816 6.45165C10.0243 6.42645 9.96241 6.41348 9.89982 6.41357H3.59922H3.59982ZM6.74982 9.41357C5.39562 9.41357 4.42722 8.52557 4.12902 7.31357H9.37062C9.07302 8.52557 8.10462 9.41357 6.74982 9.41357Z"/>
</mask>
<path d="M3.59982 6.41357C3.53723 6.41348 3.47531 6.42645 3.41802 6.45165C3.36073 6.47684 3.30932 6.51371 3.26708 6.5599C3.22484 6.60609 3.19271 6.66059 3.17272 6.7199C3.15274 6.77921 3.14535 6.84204 3.15102 6.90437C3.31902 8.74877 4.68102 10.3136 6.74982 10.3136C8.81862 10.3136 10.18 8.74877 10.3486 6.90437C10.3543 6.84204 10.3469 6.77921 10.3269 6.7199C10.3069 6.66059 10.2748 6.60609 10.2326 6.5599C10.1903 6.51371 10.1389 6.47684 10.0816 6.45165C10.0243 6.42645 9.96241 6.41348 9.89982 6.41357H3.59922H3.59982ZM6.74982 9.41357C5.39562 9.41357 4.42722 8.52557 4.12902 7.31357H9.37062C9.07302 8.52557 8.10462 9.41357 6.74982 9.41357Z" fill="#3A3A3A"/>
<path d="M3.59982 6.41357V7.41357L3.60128 5.41358L3.59982 6.41357ZM3.15102 6.90437L2.15514 6.99504L2.15515 6.99509L3.15102 6.90437ZM10.3486 6.90437L11.3445 6.99541L11.3445 6.99504L10.3486 6.90437ZM9.89982 6.41357V7.41358L9.90127 7.41357L9.89982 6.41357ZM4.12902 7.31357V6.31357H2.85316L3.15798 7.55249L4.12902 7.31357ZM9.37062 7.31357L10.3418 7.55204L10.6459 6.31357H9.37062V7.31357ZM3.60128 5.41358C3.3996 5.41328 3.20008 5.45506 3.01546 5.53625L3.82058 7.36704C3.75055 7.39784 3.67487 7.41368 3.59837 7.41357L3.60128 5.41358ZM3.01546 5.53625C2.83085 5.61744 2.6652 5.73625 2.5291 5.88508L4.00506 7.23473C3.95344 7.29118 3.8906 7.33625 3.82058 7.36704L3.01546 5.53625ZM2.5291 5.88508C2.39301 6.03391 2.28945 6.2095 2.22506 6.40062L4.12038 7.03918C4.09596 7.11167 4.05668 7.17827 4.00506 7.23473L2.5291 5.88508ZM2.22506 6.40062C2.16067 6.59174 2.13686 6.79419 2.15514 6.99504L4.1469 6.81371C4.15384 6.88989 4.14481 6.96668 4.12038 7.03918L2.22506 6.40062ZM2.15515 6.99509C2.36221 9.26832 4.08168 11.3136 6.74982 11.3136V9.31358C5.28037 9.31358 4.27584 8.22923 4.1469 6.81366L2.15515 6.99509ZM6.74982 11.3136C9.41821 11.3136 11.1367 9.26809 11.3445 6.99541L9.35277 6.81334C9.22332 8.22946 8.21903 9.31358 6.74982 9.31358V11.3136ZM11.3445 6.99504C11.3628 6.79419 11.339 6.59174 11.2746 6.40062L9.37926 7.03918C9.35484 6.96668 9.3458 6.88989 9.35274 6.81371L11.3445 6.99504ZM11.2746 6.40062C11.2102 6.20951 11.1066 6.03392 10.9705 5.88508L9.49459 7.23473C9.44296 7.17827 9.40368 7.11166 9.37926 7.03918L11.2746 6.40062ZM10.9705 5.88508C10.8344 5.73624 10.6688 5.61744 10.4842 5.53625L9.67907 7.36704C9.60904 7.33625 9.54621 7.29118 9.49459 7.23473L10.9705 5.88508ZM10.4842 5.53625C10.2996 5.45506 10.1 5.41328 9.89837 5.41358L9.90127 7.41357C9.82478 7.41368 9.7491 7.39784 9.67907 7.36704L10.4842 5.53625ZM9.89982 5.41357H3.59922V7.41357H9.89982V5.41357ZM3.59922 7.41357H3.59982V5.41357H3.59922V7.41357ZM6.74982 8.41357C5.90486 8.41357 5.30045 7.88911 5.10006 7.07466L3.15798 7.55249C3.55399 9.16204 4.88638 10.4136 6.74982 10.4136V8.41357ZM4.12902 8.31357H9.37062V6.31357H4.12902V8.31357ZM8.39947 7.07511C8.19963 7.88896 7.59558 8.41357 6.74982 8.41357V10.4136C8.61366 10.4136 9.94641 9.16219 10.3418 7.55204L8.39947 7.07511Z" fill="#3A3A3A" mask="url(#path-1-inside-1_890:4440)"/>
<mask id="path-3-inside-2_890:4440" fill="white">
<path d="M8.70017 4.46348C8.45537 4.46348 8.27416 4.63568 8.24536 4.82948C8.22786 4.94755 8.16417 5.05384 8.0683 5.12495C7.97243 5.19606 7.85224 5.22618 7.73417 5.20868C7.61609 5.19117 7.50981 5.12748 7.43869 5.03161C7.36758 4.93574 7.33746 4.81555 7.35497 4.69748C7.45217 4.04348 8.02877 3.56348 8.70017 3.56348C9.37157 3.56348 9.94817 4.04348 10.0454 4.69748C10.0629 4.81555 10.0328 4.93574 9.96164 5.03161C9.89052 5.12748 9.78424 5.19117 9.66617 5.20868C9.54809 5.22618 9.4279 5.19606 9.33203 5.12495C9.23616 5.05384 9.17247 4.94755 9.15496 4.82948C9.12616 4.63568 8.94497 4.46348 8.70017 4.46348Z"/>
</mask>
<path d="M8.70017 4.46348C8.45537 4.46348 8.27416 4.63568 8.24536 4.82948C8.22786 4.94755 8.16417 5.05384 8.0683 5.12495C7.97243 5.19606 7.85224 5.22618 7.73417 5.20868C7.61609 5.19117 7.50981 5.12748 7.43869 5.03161C7.36758 4.93574 7.33746 4.81555 7.35497 4.69748C7.45217 4.04348 8.02877 3.56348 8.70017 3.56348C9.37157 3.56348 9.94817 4.04348 10.0454 4.69748C10.0629 4.81555 10.0328 4.93574 9.96164 5.03161C9.89052 5.12748 9.78424 5.19117 9.66617 5.20868C9.54809 5.22618 9.4279 5.19606 9.33203 5.12495C9.23616 5.05384 9.17247 4.94755 9.15496 4.82948C9.12616 4.63568 8.94497 4.46348 8.70017 4.46348Z" fill="#3A3A3A"/>
<path d="M8.24536 4.82948L7.25623 4.68248L7.25618 4.68283L8.24536 4.82948ZM7.35497 4.69748L6.36583 4.55047L6.36578 4.55083L7.35497 4.69748ZM10.0454 4.69748L11.0346 4.55083L11.0345 4.55047L10.0454 4.69748ZM9.15496 4.82948L10.1442 4.68283L10.1441 4.68248L9.15496 4.82948ZM8.70017 3.46348C7.97638 3.46348 7.36027 3.98238 7.25623 4.68248L9.2345 4.97647C9.18806 5.28897 8.93435 5.46348 8.70017 5.46348V3.46348ZM7.25618 4.68283C7.27756 4.53856 7.35539 4.40869 7.47253 4.32179L8.66407 5.92811C8.97295 5.69898 9.17816 5.35654 9.23455 4.97612L7.25618 4.68283ZM7.47253 4.32179C7.58967 4.2349 7.73654 4.1981 7.88081 4.21949L7.58752 6.19787C7.96794 6.25426 8.35519 6.15723 8.66407 5.92811L7.47253 4.32179ZM7.88081 4.21949C8.02508 4.24087 8.15495 4.3187 8.24185 4.43584L6.63554 5.62738C6.86466 5.93626 7.2071 6.14147 7.58752 6.19787L7.88081 4.21949ZM8.24185 4.43584C8.32874 4.55299 8.36554 4.69985 8.34415 4.84412L6.36578 4.55083C6.30938 4.93125 6.40641 5.3185 6.63554 5.62738L8.24185 4.43584ZM8.3441 4.84449C8.3651 4.70318 8.5011 4.56348 8.70017 4.56348V2.56348C7.55643 2.56348 6.53923 3.38377 6.36583 4.55047L8.3441 4.84449ZM8.70017 4.56348C8.89923 4.56348 9.03523 4.70318 9.05623 4.84449L11.0345 4.55047C10.8611 3.38377 9.8439 2.56348 8.70017 2.56348V4.56348ZM9.05618 4.84412C9.03479 4.69985 9.07159 4.55298 9.15848 4.43584L10.7648 5.62738C10.9939 5.3185 11.091 4.93126 11.0346 4.55083L9.05618 4.84412ZM9.15848 4.43584C9.24538 4.3187 9.37525 4.24088 9.51952 4.21949L9.81281 6.19787C10.1932 6.14147 10.5357 5.93626 10.7648 5.62738L9.15848 4.43584ZM9.51952 4.21949C9.66379 4.1981 9.81065 4.2349 9.9278 4.32179L8.73626 5.92811C9.04514 6.15723 9.43239 6.25426 9.81281 6.19787L9.51952 4.21949ZM9.9278 4.32179C10.0449 4.40869 10.1228 4.53856 10.1442 4.68283L8.16578 4.97612C8.22217 5.35655 8.42738 5.69898 8.73626 5.92811L9.9278 4.32179ZM10.1441 4.68248C10.0401 3.98238 9.42395 3.46348 8.70017 3.46348V5.46348C8.46598 5.46348 8.21227 5.28897 8.16583 4.97647L10.1441 4.68248Z" fill="#3A3A3A" mask="url(#path-3-inside-2_890:4440)"/>
<path d="M5.25482 4.82948C5.27232 4.94755 5.33601 5.05384 5.43188 5.12495C5.52775 5.19606 5.64794 5.22618 5.76602 5.20868C5.88409 5.19117 5.99038 5.12748 6.06149 5.03161C6.13261 4.93574 6.16272 4.81555 6.14522 4.69748C6.04862 4.04348 5.47142 3.56348 4.80002 3.56348C4.12862 3.56348 3.55202 4.04348 3.45482 4.69748L5.25482 4.82948Z" fill="#3A3A3A" stroke="#3A3A3A"/>
<mask id="path-6-inside-3_890:4440" fill="white">
<path d="M6.75 0.413574C3.4362 0.413574 0.75 3.09977 0.75 6.41357C0.75 9.72737 3.4362 12.4136 6.75 12.4136C10.0638 12.4136 12.75 9.72737 12.75 6.41357C12.75 3.09977 10.0638 0.413574 6.75 0.413574ZM1.65 6.41357C1.65 5.06097 2.18732 3.76377 3.14376 2.80733C4.10019 1.85089 5.3974 1.31357 6.75 1.31357C8.1026 1.31357 9.39981 1.85089 10.3562 2.80733C11.3127 3.76377 11.85 5.06097 11.85 6.41357C11.85 7.76618 11.3127 9.06338 10.3562 10.0198C9.39981 10.9763 8.1026 11.5136 6.75 11.5136C5.3974 11.5136 4.10019 10.9763 3.14376 10.0198C2.18732 9.06338 1.65 7.76618 1.65 6.41357Z"/>
</mask>
<path d="M6.75 0.413574C3.4362 0.413574 0.75 3.09977 0.75 6.41357C0.75 9.72737 3.4362 12.4136 6.75 12.4136C10.0638 12.4136 12.75 9.72737 12.75 6.41357C12.75 3.09977 10.0638 0.413574 6.75 0.413574ZM1.65 6.41357C1.65 5.06097 2.18732 3.76377 3.14376 2.80733C4.10019 1.85089 5.3974 1.31357 6.75 1.31357C8.1026 1.31357 9.39981 1.85089 10.3562 2.80733C11.3127 3.76377 11.85 5.06097 11.85 6.41357C11.85 7.76618 11.3127 9.06338 10.3562 10.0198C9.39981 10.9763 8.1026 11.5136 6.75 11.5136C5.3974 11.5136 4.10019 10.9763 3.14376 10.0198C2.18732 9.06338 1.65 7.76618 1.65 6.41357Z" fill="#3A3A3A"/>
<path d="M6.75 1.31357V-0.186426V1.31357ZM11.85 6.41357H13.35H11.85ZM6.75 -1.08643C2.60777 -1.08643 -0.75 2.27135 -0.75 6.41357H2.25C2.25 3.9282 4.26463 1.91357 6.75 1.91357V-1.08643ZM-0.75 6.41357C-0.75 10.5558 2.60777 13.9136 6.75 13.9136V10.9136C4.26463 10.9136 2.25 8.89895 2.25 6.41357H-0.75ZM6.75 13.9136C10.8922 13.9136 14.25 10.5558 14.25 6.41357H11.25C11.25 8.89895 9.23537 10.9136 6.75 10.9136V13.9136ZM14.25 6.41357C14.25 2.27135 10.8922 -1.08643 6.75 -1.08643V1.91357C9.23537 1.91357 11.25 3.9282 11.25 6.41357H14.25ZM3.15 6.41357C3.15 5.4588 3.52928 4.54312 4.20442 3.86799L2.0831 1.74667C0.845355 2.98441 0.15 4.66315 0.15 6.41357H3.15ZM4.20442 3.86799C4.87955 3.19286 5.79522 2.81357 6.75 2.81357V-0.186426C4.99957 -0.186426 3.32084 0.508929 2.0831 1.74667L4.20442 3.86799ZM6.75 2.81357C7.70478 2.81357 8.62045 3.19286 9.29558 3.86799L11.4169 1.74667C10.1792 0.508929 8.50043 -0.186426 6.75 -0.186426V2.81357ZM9.29558 3.86799C9.97072 4.54312 10.35 5.45879 10.35 6.41357H13.35C13.35 4.66315 12.6546 2.98441 11.4169 1.74667L9.29558 3.86799ZM10.35 6.41357C10.35 7.36835 9.97072 8.28403 9.29558 8.95916L11.4169 11.0805C12.6546 9.84274 13.35 8.164 13.35 6.41357H10.35ZM9.29558 8.95916C8.62045 9.63429 7.70478 10.0136 6.75 10.0136V13.0136C8.50043 13.0136 10.1792 12.3182 11.4169 11.0805L9.29558 8.95916ZM6.75 10.0136C5.79522 10.0136 4.87955 9.63429 4.20442 8.95916L2.0831 11.0805C3.32084 12.3182 4.99957 13.0136 6.75 13.0136V10.0136ZM4.20442 8.95916C3.52928 8.28403 3.15 7.36835 3.15 6.41357H0.15C0.15 8.164 0.845355 9.84274 2.0831 11.0805L4.20442 8.95916Z" fill="#3A3A3A" mask="url(#path-6-inside-3_890:4440)"/>
</svg>
