<svg width="24" height="24" viewBox="0 0 24 24" fill="none" xmlns="http://www.w3.org/2000/svg">
<circle cx="12" cy="11.9998" r="11" fill="white" stroke="#0601FF" stroke-width="2"/>
<path d="M10.9706 13.0292C11.5167 13.5752 12.2574 13.882 13.0296 13.882C13.8019 13.882 14.5425 13.5752 15.0886 13.0292L17.1473 10.9705C17.6847 10.4226 17.9842 9.68476 17.9805 8.91731C17.9768 8.14985 17.6703 7.41487 17.1276 6.87219C16.5849 6.32951 15.85 6.02301 15.0825 6.01932C14.315 6.01564 13.5772 6.31507 13.0293 6.85251L12 7.88185M13.0293 10.9705C12.4832 10.4247 11.7427 10.118 10.9706 10.118C10.1985 10.118 9.45803 10.4247 8.91195 10.9705L6.85262 13.0292C6.30654 13.5753 5.99976 14.3159 5.99976 15.0882C5.99976 15.8605 6.30654 16.6011 6.85262 17.1472C7.3987 17.6933 8.13935 18 8.91162 18C9.6839 18 10.4245 17.6933 10.9706 17.1472L12 16.1178L13.0293 10.9705Z" stroke="#0601FF" stroke-width="2" stroke-linecap="round" stroke-linejoin="round"/>
</svg>
