<svg width="54" height="54" viewBox="0 0 54 54" fill="none" xmlns="http://www.w3.org/2000/svg">
<path fill-rule="evenodd" clip-rule="evenodd" d="M54.0001 6V48C54.0001 51.3 51.3001 54 48.0001 54H6.00012C2.70012 54 0.00012207 51.3 0.00012207 48V6C0.00012207 2.7 2.70012 0 6.00012 0H48.0001C51.3001 0 54.0001 2.7 54.0001 6ZM24.0002 40.53L17.7002 32.94C17.0702 32.19 15.9302 32.22 15.3602 33L7.89019 42.6C7.11019 43.59 7.80019 45.03 9.06019 45.03H45.0302C46.2602 45.03 46.9802 43.62 46.2302 42.63L35.7002 28.59C35.1002 27.78 33.9002 27.78 33.3002 28.56L24.0002 40.53Z" fill="#94A3B1"/>
</svg>
