<svg width="21" height="21" viewBox="0 0 21 21" fill="none" xmlns="http://www.w3.org/2000/svg">
<path d="M13.0234 1.20856L13.0235 1.20859L19.8986 7.99358C20.0339 8.12712 20.0338 8.41434 19.8986 8.5478C19.8986 8.54781 19.8986 8.54782 19.8986 8.54783L13.0234 15.3335L13.0234 15.3335C12.9833 15.3731 12.9583 15.377 12.9518 15.3779C12.9414 15.3793 12.9218 15.3789 12.8939 15.3645C12.8423 15.3378 12.75 15.2511 12.75 15.0564V11.1316V10.3692L11.9877 10.3817C10.4459 10.4071 9.08038 10.5354 7.92975 10.8328C6.77755 11.1305 5.79406 11.6099 5.07127 12.3708C3.59902 13.9206 3.48068 16.315 4.36668 19.5781C2.8539 18.2551 1.5 15.8045 1.5 13.3745C1.5 10.1953 2.64162 8.4041 4.4084 7.34218C6.25502 6.23228 8.89381 5.85016 12.0098 5.80939L12.75 5.79971V5.05946V1.48567C12.75 1.29163 12.8421 1.20449 12.8942 1.17757C12.9221 1.16312 12.9417 1.16273 12.9518 1.16413C12.9581 1.16499 12.9831 1.1688 13.0234 1.20856ZM4.40771 19.6136C4.4077 19.6136 4.4077 19.6136 4.40769 19.6136L5.1003 19.4241L4.40771 19.6136Z" stroke="#3A3A3A" stroke-width="1.5"/>
</svg>
