<svg width="13" height="13" viewBox="0 0 13 13" fill="none" xmlns="http://www.w3.org/2000/svg">
<path d="M6.76752 0.4136C5.5801 0.410131 4.41834 0.759075 3.42934 1.41625C2.44035 2.07343 1.66859 3.00928 1.21177 4.10533C0.754957 5.20137 0.633634 6.40832 0.863162 7.57336C1.09269 8.7384 1.66275 9.80913 2.50116 10.65C3.33957 11.4909 4.40863 12.0641 5.57299 12.297C6.73735 12.5299 7.94465 12.4121 9.04203 11.9585C10.1394 11.5049 11.0775 10.7359 11.7376 9.74883C12.3976 8.76176 12.75 7.60103 12.75 6.4136C12.7515 5.62671 12.598 4.84724 12.2981 4.11973C11.9982 3.39223 11.5579 2.73096 11.0023 2.17373C10.4467 1.6165 9.78668 1.17424 9.06006 0.872226C8.33343 0.570211 7.55441 0.414366 6.76752 0.4136ZM12.0255 6.4136C12.0255 7.45354 11.7172 8.47012 11.1394 9.3348C10.5617 10.1995 9.74046 10.8734 8.77968 11.2714C7.8189 11.6694 6.76169 11.7735 5.74173 11.5706C4.72178 11.3677 3.78488 10.8669 3.04954 10.1316C2.31419 9.39624 1.81341 8.45935 1.61053 7.43939C1.40764 6.41943 1.51177 5.36222 1.90974 4.40144C2.30771 3.44066 2.98164 2.61946 3.84632 2.0417C4.711 1.46394 5.72758 1.15557 6.76752 1.15557C8.16204 1.15557 9.49944 1.70954 10.4855 2.69561C11.4716 3.68168 12.0255 5.01908 12.0255 6.4136Z" fill="#3A3A3A"/>
<path d="M4.89827 5.85866C5.07952 5.86325 5.25797 5.81332 5.41053 5.71534C5.56308 5.61736 5.68271 5.47585 5.75393 5.30911C5.82515 5.14238 5.84468 4.9581 5.80999 4.78014C5.7753 4.60218 5.68799 4.43874 5.55936 4.31096C5.43073 4.18318 5.26671 4.09696 5.08852 4.06345C4.91034 4.02994 4.7262 4.0507 4.55994 4.12302C4.39368 4.19535 4.25296 4.31592 4.156 4.46912C4.05904 4.62233 4.0103 4.80111 4.01609 4.98232C4.02485 5.21295 4.12078 5.43166 4.28451 5.59431C4.44825 5.75696 4.66759 5.85143 4.89827 5.85866Z" fill="#3A3A3A"/>
<path d="M8.7774 5.85847C8.90204 5.86851 9.02741 5.85262 9.14561 5.81181C9.2638 5.771 9.37227 5.70616 9.46417 5.62136C9.55606 5.53657 9.6294 5.43366 9.67957 5.31912C9.72973 5.20457 9.75563 5.08089 9.75563 4.95584C9.75563 4.8308 9.72973 4.70711 9.67957 4.59257C9.6294 4.47803 9.55606 4.37512 9.46417 4.29032C9.37227 4.20553 9.2638 4.14068 9.14561 4.09987C9.02741 4.05906 8.90204 4.04318 8.7774 4.05321C8.65799 4.05468 8.54009 4.08006 8.43066 4.12785C8.32122 4.17565 8.22248 4.24488 8.14024 4.33147C8.05801 4.41806 7.99396 4.52025 7.95188 4.632C7.90979 4.74376 7.89053 4.86281 7.89522 4.98213C7.89676 5.21509 7.99039 5.43798 8.15566 5.60216C8.32094 5.76634 8.54444 5.85848 8.7774 5.85847Z" fill="#3A3A3A"/>
<path d="M6.87839 8.95508C6.26805 8.94288 5.66939 8.78549 5.13196 8.49595C4.59452 8.2064 4.13377 7.79303 3.78784 7.29004C3.99591 7.95375 4.40624 8.53583 4.96143 8.95484C5.51662 9.37386 6.18891 9.60885 6.88424 9.62694C7.58454 9.62547 8.26548 9.3969 8.82484 8.97553C9.3842 8.55417 9.7918 7.96275 9.98647 7.29004C9.65032 7.80664 9.18924 8.23008 8.64595 8.52113C8.10266 8.81218 7.4947 8.96144 6.87839 8.95508Z" fill="#3A3A3A"/>
</svg>
