<svg width="21" height="21" viewBox="0 0 21 21" fill="none" xmlns="http://www.w3.org/2000/svg">
<path d="M10.7792 0.413617C8.80016 0.407836 6.8639 0.989408 5.21557 2.0847C3.56724 3.18 2.28098 4.73975 1.51962 6.5665C0.758262 8.39324 0.556057 10.4048 0.938603 12.3465C1.32115 14.2883 2.27124 16.0728 3.6686 17.4743C5.06595 18.8757 6.84772 19.831 8.78832 20.2193C10.7289 20.6075 12.7411 20.4112 14.57 19.6552C16.399 18.8992 17.9625 17.6175 19.0626 15.9723C20.1627 14.3272 20.75 12.3927 20.75 10.4136C20.7525 9.10213 20.4966 7.80301 19.9968 6.5905C19.497 5.378 18.7631 4.27588 17.8371 3.34717C16.9111 2.41846 15.8111 1.68135 14.6001 1.17799C13.3891 0.674636 12.0907 0.414894 10.7792 0.413617ZM19.5426 10.4136C19.5426 12.1468 19.0286 13.8412 18.0657 15.2823C17.1028 16.7234 15.7341 17.8466 14.1328 18.5099C12.5315 19.1732 10.7695 19.3468 9.06955 19.0086C7.36963 18.6705 5.80814 17.8358 4.58256 16.6103C3.35698 15.3847 2.52235 13.8232 2.18421 12.1233C1.84607 10.4233 2.01962 8.66131 2.6829 7.06001C3.34618 5.45871 4.4694 4.09006 5.91053 3.12713C7.35166 2.16419 9.04597 1.65023 10.7792 1.65023C13.1034 1.65023 15.3324 2.57351 16.9758 4.21696C18.6193 5.86042 19.5426 8.08942 19.5426 10.4136Z" fill="#3A3A3A"/>
<path d="M7.66345 9.48848C7.96554 9.49612 8.26296 9.41291 8.51722 9.24961C8.77148 9.08631 8.97086 8.85045 9.08956 8.57256C9.20826 8.29467 9.24081 7.98755 9.183 7.69095C9.12518 7.39435 8.97966 7.12193 8.76528 6.90897C8.5509 6.69601 8.27752 6.5523 7.98055 6.49646C7.68357 6.44061 7.37667 6.4752 7.09957 6.59574C6.82248 6.71629 6.58794 6.91724 6.42634 7.17258C6.26474 7.42792 6.1835 7.72589 6.19315 8.02791C6.20776 8.41228 6.36764 8.7768 6.64053 9.04788C6.91342 9.31897 7.27899 9.47643 7.66345 9.48848Z" fill="#3A3A3A"/>
<path d="M14.1287 9.48848C14.3364 9.50521 14.5454 9.47873 14.7423 9.41072C14.9393 9.34271 15.1201 9.23463 15.2733 9.0933C15.4264 8.95197 15.5487 8.78046 15.6323 8.58956C15.7159 8.39866 15.7591 8.19251 15.7591 7.9841C15.7591 7.7757 15.7159 7.56955 15.6323 7.37865C15.5487 7.18775 15.4264 7.01623 15.2733 6.8749C15.1201 6.73358 14.9393 6.6255 14.7423 6.55749C14.5454 6.48947 14.3364 6.463 14.1287 6.47972C13.9297 6.48217 13.7332 6.52447 13.5508 6.60412C13.3684 6.68377 13.2038 6.79917 13.0667 6.94348C12.9297 7.0878 12.8229 7.25811 12.7528 7.44437C12.6827 7.63063 12.6506 7.82905 12.6584 8.02792C12.6609 8.41618 12.817 8.78766 13.0924 9.06129C13.3679 9.33492 13.7404 9.48849 14.1287 9.48848Z" fill="#3A3A3A"/>
<path d="M10.9642 14.6493C9.94691 14.629 8.94914 14.3667 8.05342 13.8841C7.1577 13.4015 6.38979 12.7126 5.81323 11.8743C6.16001 12.9805 6.8439 13.9506 7.76922 14.6489C8.69454 15.3473 9.81501 15.7389 10.9739 15.7691C12.1411 15.7667 13.276 15.3857 14.2082 14.6834C15.1405 13.9811 15.8198 12.9954 16.1443 11.8743C15.584 12.7353 14.8156 13.441 13.9101 13.9261C13.0046 14.4112 11.9913 14.6599 10.9642 14.6493Z" fill="#3A3A3A"/>
</svg>
