<svg width="37" height="37" viewBox="0 0 37 37" fill="none" xmlns="http://www.w3.org/2000/svg">
<path fill-rule="evenodd" clip-rule="evenodd" d="M24.7955 13.5044C24.7955 15.2404 24.1059 16.9053 22.8784 18.1328C21.6509 19.3603 19.986 20.0499 18.25 20.0499C16.5141 20.0499 14.8492 19.3603 13.6217 18.1328C12.3942 16.9053 11.7046 15.2404 11.7046 13.5044C11.7046 11.7685 12.3942 10.1036 13.6217 8.8761C14.8492 7.64859 16.5141 6.95898 18.25 6.95898C19.986 6.95898 21.6509 7.64859 22.8784 8.8761C24.1059 10.1036 24.7955 11.7685 24.7955 13.5044ZM21.5228 13.5044C21.5228 14.3724 21.178 15.2049 20.5642 15.8186C19.9505 16.4324 19.118 16.7772 18.25 16.7772C17.3821 16.7772 16.5496 16.4324 15.9359 15.8186C15.3221 15.2049 14.9773 14.3724 14.9773 13.5044C14.9773 12.6365 15.3221 11.804 15.9359 11.1903C16.5496 10.5765 17.3821 10.2317 18.25 10.2317C19.118 10.2317 19.9505 10.5765 20.5642 11.1903C21.178 11.804 21.5228 12.6365 21.5228 13.5044Z" fill="white"/>
<path fill-rule="evenodd" clip-rule="evenodd" d="M18.25 0.413574C8.30909 0.413574 0.25 8.47267 0.25 18.4136C0.25 28.3545 8.30909 36.4136 18.25 36.4136C28.1909 36.4136 36.25 28.3545 36.25 18.4136C36.25 8.47267 28.1909 0.413574 18.25 0.413574ZM3.52273 18.4136C3.52273 21.8336 4.68945 24.9819 6.64491 27.4823C8.0182 25.6789 9.78984 24.2173 11.8214 23.2119C13.853 22.2065 16.0896 21.6843 18.3564 21.6863C20.5938 21.6842 22.8022 22.1928 24.8133 23.1734C26.8245 24.154 28.5852 25.5807 29.9615 27.3448C31.3793 25.4853 32.3339 23.3148 32.7464 21.0131C33.1588 18.7113 33.0173 16.3444 32.3334 14.1083C31.6495 11.8721 30.4429 9.83092 28.8135 8.15364C27.1841 6.47635 25.1788 5.21116 22.9634 4.46277C20.7479 3.71438 18.3861 3.50429 16.0734 3.84989C13.7607 4.1955 11.5635 5.08685 9.66362 6.45021C7.76377 7.81356 6.21587 9.60973 5.14801 11.6901C4.08015 13.7704 3.52302 16.0752 3.52273 18.4136ZM18.25 33.1408C14.8692 33.1459 11.5904 31.9829 8.96855 29.8485C10.0239 28.3377 11.4286 27.1042 13.063 26.2529C14.6975 25.4016 16.5135 24.9577 18.3564 24.959C20.1763 24.9576 21.9703 25.3903 23.5893 26.2214C25.2084 27.0524 26.6059 28.2577 27.6656 29.7372C25.0234 31.9409 21.6906 33.1457 18.25 33.1408Z" fill="white"/>
</svg>
