<svg width="18" height="12" viewBox="0 0 18 12" fill="none" xmlns="http://www.w3.org/2000/svg">
<path d="M8.96511 7.91357C10.2555 7.91357 11.3016 7.01814 11.3016 5.91357C11.3016 4.809 10.2555 3.91357 8.96511 3.91357C7.67473 3.91357 6.62866 4.809 6.62866 5.91357C6.62866 7.01814 7.67473 7.91357 8.96511 7.91357Z" fill="white"/>
<path d="M17.6916 5.74357C17.0045 4.2224 15.8119 2.90688 14.261 1.95962C12.71 1.01235 10.8688 0.474861 8.96492 0.413574C7.06102 0.474861 5.21982 1.01235 3.6689 1.95962C2.11797 2.90688 0.925299 4.2224 0.238289 5.74357C0.191892 5.85343 0.191892 5.97372 0.238289 6.08357C0.925299 7.60475 2.11797 8.92027 3.6689 9.86753C5.21982 10.8148 7.06102 11.3523 8.96492 11.4136C10.8688 11.3523 12.71 10.8148 14.261 9.86753C15.8119 8.92027 17.0045 7.60475 17.6916 6.08357C17.738 5.97372 17.738 5.85343 17.6916 5.74357ZM8.96492 9.16357C8.214 9.16357 7.47994 8.97297 6.85558 8.61585C6.23121 8.25874 5.74457 7.75115 5.4572 7.1573C5.16984 6.56344 5.09465 5.90997 5.24115 5.27953C5.38765 4.64909 5.74925 4.07 6.28023 3.61548C6.81121 3.16096 7.48773 2.85142 8.22422 2.72602C8.96071 2.60062 9.72411 2.66498 10.4179 2.91097C11.1116 3.15695 11.7046 3.57351 12.1218 4.10797C12.539 4.64243 12.7617 5.27078 12.7617 5.91357C12.7601 6.77512 12.3596 7.601 11.6479 8.21021C10.9362 8.81942 9.97141 9.16225 8.96492 9.16357Z" fill="white"/>
</svg>
