<svg width="27" height="13" viewBox="0 0 27 13" fill="none" xmlns="http://www.w3.org/2000/svg">
<path d="M12.9145 6.5C12.9145 9.51383 10.3357 12 7.1003 12C3.86487 12 1.28613 9.51383 1.28613 6.5C1.28613 3.48617 3.86487 1 7.1003 1C10.3357 1 12.9145 3.48617 12.9145 6.5Z" fill="#C4C4C4" stroke="black"/>
<path d="M19.2282 6.5C19.2282 9.51383 16.6495 12 13.414 12C10.1786 12 7.59985 9.51383 7.59985 6.5C7.59985 3.48617 10.1786 1 13.414 1C16.6495 1 19.2282 3.48617 19.2282 6.5Z" fill="#C4C4C4" stroke="black"/>
<path d="M25.5427 6.5C25.5427 9.51383 22.9639 12 19.7285 12C16.493 12 13.9143 9.51383 13.9143 6.5C13.9143 3.48617 16.493 1 19.7285 1C22.9639 1 25.5427 3.48617 25.5427 6.5Z" fill="#C4C4C4" stroke="black"/>
</svg>
