<svg width="40" height="37" viewBox="0 0 40 37" fill="none" xmlns="http://www.w3.org/2000/svg">
<path d="M39.9875 2.25165C39.9875 1.66675 39.7695 1.1058 39.3814 0.692217C38.9933 0.27863 38.467 0.0462789 37.9182 0.0462789C37.8127 0.0462789 37.7113 0.0630462 37.6095 0.0793202V0.0324707H2.06934V0.0462789C1.52052 0.0462789 0.994172 0.27863 0.606096 0.692217C0.218019 1.1058 0 1.66675 0 2.25165V34.0599H0.0231367C0.139745 35.1601 1.00552 36.0187 2.06888 36.0187V36.0325H37.6091V35.9856C37.7104 36.0019 37.8117 36.0187 37.9177 36.0187C38.9815 36.0187 39.8473 35.1606 39.9639 34.0599H40V2.25165H39.9875ZM35.393 31.1222H30.3673C30.3504 31.0464 30.3246 30.9731 30.2905 30.9042L30.2988 30.8993L19.786 11.4938L19.7818 11.4963C19.6659 11.2396 19.4844 11.0229 19.2581 10.8711C19.0319 10.7194 18.7701 10.6386 18.5028 10.6382C18.2281 10.6385 17.9594 10.7235 17.729 10.8828C17.4985 11.0421 17.3162 11.269 17.2039 11.5362L10.2079 24.4498L8.49485 21.2883L8.49253 21.2897C8.43146 21.1544 8.3358 21.0401 8.21655 20.96C8.0973 20.8799 7.95928 20.8373 7.81833 20.837C7.51339 20.837 7.25195 21.0318 7.13395 21.3095L4.60743 25.9732V4.95658H35.393V31.1222Z" fill="black"/>
<path d="M28.3855 17.3835C30.9667 17.3835 33.0591 15.1535 33.0591 12.4027C33.0591 9.65187 30.9667 7.42188 28.3855 7.42188C25.8044 7.42188 23.7119 9.65187 23.7119 12.4027C23.7119 15.1535 25.8044 17.3835 28.3855 17.3835Z" fill="black"/>
</svg>
