<svg width="40" height="37" viewBox="0 0 40 37" fill="none" xmlns="http://www.w3.org/2000/svg">
<path d="M35.5556 0.967285H4.44444C3.2657 0.967285 2.13524 1.38871 1.30175 2.13886C0.468252 2.889 0 3.90642 0 4.96729V32.9673C0 34.0282 0.468252 35.0456 1.30175 35.7957C2.13524 36.5459 3.2657 36.9673 4.44444 36.9673H35.5556C36.7343 36.9673 37.8648 36.5459 38.6983 35.7957C39.5317 35.0456 40 34.0282 40 32.9673V4.96729C40 3.90642 39.5317 2.889 38.6983 2.13886C37.8648 1.38871 36.7343 0.967285 35.5556 0.967285ZM24.3111 24.5873L19.4 28.9673C17.9556 30.3073 16.0444 30.9673 14.1333 30.9673C12.2222 30.9673 10.3111 30.3073 8.88889 28.9673C5.93333 26.3873 5.93333 22.1273 8.88889 19.4873L11.8889 16.7673L11.8667 17.9673C11.8444 18.9673 12.0222 19.9673 12.3778 20.8473L12.4889 21.1473L11.6 21.9673C11.2632 22.2646 10.9957 22.6194 10.8131 23.0109C10.6305 23.4024 10.5364 23.8227 10.5364 24.2473C10.5364 24.6719 10.6305 25.0922 10.8131 25.4837C10.9957 25.8752 11.2632 26.2299 11.6 26.5273C12.9556 27.7673 15.3111 27.7673 16.6667 26.5273L21.5556 22.1473C22.2222 21.5273 22.6222 20.7073 22.6222 19.8473C22.6222 18.9673 22.2222 18.1873 21.5556 17.5673C21.3728 17.4054 21.2277 17.2124 21.1286 16.9995C21.0295 16.7866 20.9785 16.5581 20.9785 16.3273C20.9785 16.0965 21.0295 15.868 21.1286 15.6551C21.2277 15.4422 21.3728 15.2492 21.5556 15.0873C22.2889 14.4273 23.5778 14.4473 24.3111 15.0873C25.7111 16.3673 26.4889 18.0473 26.4889 19.8473C26.4889 21.6473 25.7111 23.3273 24.3111 24.5873ZM31.1111 18.4473L28.1333 21.1673V19.9673C28.1556 18.9673 27.9778 17.9673 27.6222 17.0873L27.5111 16.8073L28.4 15.9673C28.7368 15.6699 29.0043 15.3152 29.1869 14.9237C29.3695 14.5322 29.4636 14.1119 29.4636 13.6873C29.4636 13.2627 29.3695 12.8424 29.1869 12.4509C29.0043 12.0594 28.7368 11.7046 28.4 11.4073C27.0444 10.1673 24.6667 10.1873 23.3333 11.4073L18.4444 15.8073C17.7778 16.4073 17.3778 17.2273 17.3778 18.0873C17.3778 18.9673 17.7778 19.7473 18.4444 20.3673C18.8222 20.6873 19.0222 21.1273 19.0222 21.6073C19.0222 22.0873 18.8222 22.5273 18.4444 22.8473C18.2635 23.0092 18.0484 23.1368 17.8117 23.2227C17.5751 23.3086 17.3218 23.3509 17.0667 23.3473C16.5778 23.3473 16.0667 23.1873 15.6889 22.8473C14.2909 21.5867 13.5057 19.8784 13.5057 18.0973C13.5057 16.3162 14.2909 14.6079 15.6889 13.3473L20.6 8.96729C21.2851 8.33801 22.1028 7.83809 23.0052 7.4968C23.9076 7.15551 24.8767 6.97972 25.8556 6.97972C26.8344 6.97972 27.8035 7.15551 28.7059 7.4968C29.6083 7.83809 30.426 8.33801 31.1111 8.96729C32.5556 10.2073 33.3333 11.8873 33.3333 13.6873C33.3333 15.4873 32.5556 17.1673 31.1111 18.4473Z" fill="black"/>
</svg>
