<svg width="75" height="67" viewBox="0 0 75 67" fill="none" xmlns="http://www.w3.org/2000/svg">
<path d="M37.3117 22.5C29.242 22.5 22.4229 29.2173 22.4229 37.1667C22.4229 45.116 29.242 51.8333 37.3117 51.8333C45.3815 51.8333 52.2006 45.116 52.2006 37.1667C52.2006 29.2173 45.3815 22.5 37.3117 22.5ZM37.3117 44.5C33.3476 44.5 29.8673 41.0717 29.8673 37.1667C29.8673 33.2617 33.3476 29.8333 37.3117 29.8333C41.2759 29.8333 44.7562 33.2617 44.7562 37.1667C44.7562 41.0717 41.2759 44.5 37.3117 44.5Z" fill="white"/>
<path d="M67.4131 11.5H57.7874L47.7114 1.57434C47.3663 1.23318 46.9561 0.962626 46.5045 0.778246C46.0529 0.593867 45.5686 0.499305 45.0798 0.500004H30.1909C29.702 0.499305 29.2178 0.593867 28.7661 0.778246C28.3145 0.962626 27.9043 1.23318 27.5593 1.57434L17.4832 11.5H7.85753C3.75192 11.5 0.413086 14.789 0.413086 18.8333V59.1667C0.413086 63.211 3.75192 66.5 7.85753 66.5H67.4131C71.5187 66.5 74.8575 63.211 74.8575 59.1667V18.8333C74.8575 14.789 71.5187 11.5 67.4131 11.5ZM7.85753 59.1667V18.8333H19.0242C20.0143 18.8333 20.9598 18.4483 21.6558 17.759L31.7319 7.83334H43.5388L53.6148 17.759C53.9599 18.1002 54.37 18.3707 54.8217 18.5551C55.2733 18.7395 55.7575 18.834 56.2464 18.8333H67.4131L67.4205 59.1667H7.85753Z" fill="white"/>
</svg>
