<svg width="25" height="25" viewBox="0 0 25 25" fill="none" xmlns="http://www.w3.org/2000/svg">
<path d="M18.8686 17.1161L19.2221 16.7626L18.8686 16.409L14.9141 12.4546L18.8686 8.50014L19.2221 8.14659L18.8686 7.79304L17.1766 6.10104L16.823 5.74748L16.4695 6.10104L12.515 10.0555L8.56057 6.10104L8.20701 5.74748L7.85346 6.10104L6.16146 7.79304L5.80791 8.14659L6.16146 8.50014L10.1159 12.4546L6.16146 16.409L5.80791 16.7626L6.16146 17.1161L7.85346 18.8081L8.20701 19.1617L8.56057 18.8081L12.515 14.8537L16.4695 18.8081L16.823 19.1617L17.1766 18.8081L18.8686 17.1161ZM1.01501 12.4546C1.01501 6.09473 6.15516 0.95459 12.515 0.95459C18.8749 0.95459 24.015 6.09473 24.015 12.4546C24.015 18.8144 18.8749 23.9546 12.515 23.9546C6.15516 23.9546 1.01501 18.8144 1.01501 12.4546Z" fill="#C4C4C4" stroke="black"/>
</svg>
