<svg width="17" height="19" viewBox="0 0 17 19" fill="none" xmlns="http://www.w3.org/2000/svg">
<path d="M0.668823 14.9605V18.0001C0.668823 18.28 0.864352 18.5 1.11321 18.5H3.81506C3.9306 18.5 4.04614 18.45 4.12613 18.35L13.8315 7.4415L10.4986 3.69201L0.802139 14.6005C0.713262 14.7005 0.668823 14.8205 0.668823 14.9605ZM16.4089 3.13209L14.3292 0.792404C14.247 0.699713 14.1493 0.626176 14.0418 0.576001C13.9343 0.525826 13.819 0.5 13.7026 0.5C13.5862 0.5 13.471 0.525826 13.3634 0.576001C13.2559 0.626176 13.1583 0.699713 13.076 0.792404L11.4496 2.62216L14.7825 6.37165L16.4089 4.5419C16.4913 4.44939 16.5567 4.33952 16.6013 4.21856C16.6459 4.09761 16.6688 3.96794 16.6688 3.83699C16.6688 3.70604 16.6459 3.57638 16.6013 3.45542C16.5567 3.33446 16.4913 3.22459 16.4089 3.13209Z" fill="black"/>
</svg>
