<svg width="74" height="67" viewBox="0 0 74 67" fill="none" xmlns="http://www.w3.org/2000/svg">
<path d="M61.3421 0.503881C62.8827 0.503881 64.4081 0.83017 65.8315 1.46412C67.2548 2.09806 68.548 3.02725 69.6374 4.19863C70.7267 5.37002 71.5908 6.76065 72.1804 8.29113C72.7699 9.82162 73.0734 11.462 73.0734 13.1186V53.8853C73.0734 55.5419 72.7699 57.1823 72.1804 58.7127C71.5908 60.2432 70.7267 61.6339 69.6374 62.8052C68.548 63.9766 67.2548 64.9058 65.8315 65.5398C64.4081 66.1737 62.8827 66.5 61.3421 66.5H12.6121C9.50081 66.5 6.51691 65.171 4.31687 62.8052C2.11683 60.4395 0.880859 57.2309 0.880859 53.8853V13.1147C0.880859 9.76906 2.11683 6.56046 4.31687 4.19475C6.51691 1.82904 9.50081 0.5 12.6121 0.5H61.3421V0.503881ZM22.5928 21.3511C16.7199 21.3511 12.6518 26.8239 12.6518 33.4728C12.6518 40.1217 16.7235 45.6062 22.5928 45.6062C25.7945 45.6062 28.74 43.9488 30.2127 40.8941L30.4906 40.2654L30.5736 39.9936L30.6386 39.7025L30.6675 39.3804V33.4806L30.6422 33.1196C30.5716 32.6124 30.3532 32.1424 30.0186 31.7769C29.6839 31.4115 29.2502 31.1695 28.7797 31.0857L28.4115 31.0547H24.7946L24.4625 31.078C23.9911 31.1545 23.5542 31.3895 23.2145 31.7492C22.8747 32.109 22.6495 32.5751 22.5711 33.0808L22.5386 33.4806L22.5639 33.8377C22.7083 34.8779 23.4663 35.7008 24.4264 35.8716L24.7946 35.9065H26.1518V38.7516L26.1302 38.8098C25.448 40.0519 24.1377 40.7505 22.5928 40.7505C19.4668 40.7505 17.1639 37.6531 17.1639 33.4728C17.1639 29.2964 19.4632 26.2029 22.5928 26.2029C24.1124 26.2029 24.9751 26.3853 26.058 26.9404C26.5947 27.2017 27.2052 27.2268 27.7589 27.0105C28.3127 26.7941 28.7658 26.3534 29.0213 25.7826C29.2768 25.2117 29.3146 24.5561 29.1264 23.9557C28.9382 23.3554 28.5391 22.858 28.0144 22.5699C26.271 21.6694 24.7477 21.3511 22.5928 21.3511ZM39.2476 21.8246C38.7069 21.8248 38.1843 22.0338 37.7748 22.4135C37.3654 22.7932 37.0964 23.3184 37.0168 23.8934L36.9916 24.2505V42.7378L37.0168 43.0949C37.0974 43.6691 37.3668 44.1931 37.7762 44.5718C38.1855 44.9505 38.7076 45.1588 39.2476 45.1588C39.7876 45.1588 40.3096 44.9505 40.719 44.5718C41.1283 44.1931 41.3977 43.6691 41.4783 43.0949L41.5036 42.7378V24.2505L41.4783 23.8934C41.3987 23.3184 41.1297 22.7932 40.7203 22.4135C40.3109 22.0338 39.7882 21.8248 39.2476 21.8246ZM57.2704 21.8518L50.062 21.8246C49.5217 21.8225 48.9986 22.029 48.5879 22.4065C48.1772 22.7841 47.9062 23.3075 47.824 23.8818L47.7988 24.2428V42.6718L47.8204 43.0328C47.9648 44.073 48.7228 44.8959 49.683 45.0667L50.0548 45.0977L50.3869 45.0745C51.3543 44.9192 52.1195 44.1041 52.2783 43.0716L52.3108 42.6718L52.3072 38.344H56.3608L56.6929 38.3208C57.6603 38.1655 58.4255 37.3504 58.5879 36.3179L58.6168 35.922L58.5916 35.5649C58.5216 35.057 58.3036 34.5861 57.9689 34.2199C57.6342 33.8537 57.2 33.6112 56.729 33.5272L56.3608 33.4961H52.3072V26.6803L57.2524 26.7036L57.5881 26.6803C58.1249 26.5988 58.6165 26.3122 58.9728 25.8729C59.3292 25.4336 59.5265 24.871 59.5287 24.288C59.5309 23.7051 59.3378 23.1408 58.9847 22.6984C58.6317 22.256 58.1423 21.9651 57.6061 21.879L57.2704 21.8518L50.062 21.8246L57.2704 21.8518Z" fill="white"/>
</svg>
