<svg width="40" height="37" viewBox="0 0 40 37" fill="none" xmlns="http://www.w3.org/2000/svg">
<path d="M33.5 0.991131C34.3536 0.991131 35.1988 1.16911 35.9874 1.5149C36.7761 1.86068 37.4926 2.36752 38.0962 3.00645C38.6998 3.64539 39.1786 4.40391 39.5052 5.23872C39.8319 6.07353 40 6.96827 40 7.87186V30.1083C40 31.0119 39.8319 31.9066 39.5052 32.7414C39.1786 33.5762 38.6998 34.3348 38.0962 34.9737C37.4926 35.6126 36.7761 36.1195 35.9874 36.4652C35.1988 36.811 34.3536 36.989 33.5 36.989H6.5C4.77609 36.989 3.12279 36.2641 1.90381 34.9737C0.684819 33.6833 0 31.9332 0 30.1083V7.86975C0 6.04486 0.684819 4.29472 1.90381 3.00433C3.12279 1.71395 4.77609 0.989014 6.5 0.989014H33.5V0.991131ZM12.03 12.3623C8.776 12.3623 6.522 15.3475 6.522 18.9742C6.522 22.6009 8.778 25.5924 12.03 25.5924C13.804 25.5924 15.436 24.6884 16.252 23.0222L16.406 22.6792L16.452 22.531L16.488 22.3722L16.504 22.1965V18.9784L16.49 18.7815C16.4508 18.5049 16.3299 18.2485 16.1445 18.0492C15.959 17.8498 15.7187 17.7178 15.458 17.6721L15.254 17.6552H13.25L13.066 17.6679C12.8048 17.7097 12.5627 17.8378 12.3745 18.0341C12.1862 18.2303 12.0615 18.4845 12.018 18.7604L12 18.9784L12.014 19.1732C12.094 19.7406 12.514 20.1894 13.046 20.2826L13.25 20.3016H14.002V21.8535L13.99 21.8853C13.612 22.5628 12.886 22.9438 12.03 22.9438C10.298 22.9438 9.022 21.2544 9.022 18.9742C9.022 16.6961 10.296 15.0088 12.03 15.0088C12.872 15.0088 13.35 15.1083 13.95 15.411C14.2474 15.5536 14.5856 15.5673 14.8925 15.4493C15.1993 15.3313 15.4503 15.0909 15.5919 14.7795C15.7335 14.4681 15.7544 14.1105 15.6501 13.783C15.5459 13.4556 15.3247 13.1843 15.034 13.0271C14.068 12.5359 13.224 12.3623 12.03 12.3623ZM21.258 12.6206C20.9584 12.6207 20.6689 12.7347 20.442 12.9418C20.2151 13.1489 20.0661 13.4354 20.022 13.7491L20.008 13.9438V24.0278L20.022 24.2226C20.0667 24.5358 20.2159 24.8216 20.4427 25.0282C20.6695 25.2347 20.9588 25.3483 21.258 25.3483C21.5572 25.3483 21.8465 25.2347 22.0733 25.0282C22.3001 24.8216 22.4493 24.5358 22.494 24.2226L22.508 24.0278V13.9438L22.494 13.7491C22.4499 13.4354 22.3009 13.1489 22.074 12.9418C21.8471 12.7347 21.5576 12.6207 21.258 12.6206ZM31.244 12.6355L27.25 12.6206C26.9506 12.6195 26.6608 12.7321 26.4333 12.938C26.2057 13.144 26.0555 13.4295 26.01 13.7427L25.996 13.9396V23.9918L26.008 24.1887C26.088 24.7561 26.508 25.205 27.04 25.2981L27.246 25.3151L27.43 25.3024C27.966 25.2177 28.39 24.7731 28.478 24.2099L28.496 23.9918L28.494 21.6312H30.74L30.924 21.6185C31.46 21.5338 31.884 21.0892 31.974 20.5261L31.99 20.3101L31.976 20.1153C31.9372 19.8383 31.8164 19.5814 31.631 19.3817C31.4455 19.182 31.205 19.0497 30.944 19.0038L30.74 18.9869H28.494V15.2692L31.234 15.2819L31.42 15.2692C31.7174 15.2247 31.9898 15.0684 32.1872 14.8288C32.3847 14.5892 32.494 14.2823 32.4953 13.9643C32.4965 13.6463 32.3895 13.3385 32.1939 13.0972C31.9982 12.8559 31.7271 12.6973 31.43 12.6503L31.244 12.6355L27.25 12.6206L31.244 12.6355Z" fill="black"/>
</svg>
