<svg width="31" height="30" viewBox="0 0 31 30" fill="none" xmlns="http://www.w3.org/2000/svg">
<path d="M2.05074 0.113175C1.87138 0.0234671 1.67044 -0.0141023 1.47079 0.00474051C1.27113 0.0235833 1.08077 0.098082 0.921354 0.219762C0.761942 0.341442 0.639879 0.505419 0.56905 0.69304C0.498222 0.880661 0.481471 1.08439 0.520703 1.28106L3.52721 11.6742C3.58327 11.8679 3.69284 12.0418 3.84334 12.176C3.99383 12.3102 4.17913 12.3992 4.37795 12.4328L16.5711 14.475C17.1454 14.5886 17.1454 15.4114 16.5711 15.525L4.37795 17.5672C4.17913 17.6008 3.99383 17.6898 3.84334 17.824C3.69284 17.9582 3.58327 18.1321 3.52721 18.3258L0.520703 28.7189C0.481471 28.9156 0.498222 29.1193 0.56905 29.307C0.639879 29.4946 0.761942 29.6586 0.921354 29.7802C1.08077 29.9019 1.27113 29.9764 1.47079 29.9953C1.67044 30.0141 1.87138 29.9765 2.05074 29.8868L29.9086 15.9579C30.0864 15.8688 30.2358 15.732 30.3402 15.5629C30.4447 15.3937 30.5 15.1988 30.5 15C30.5 14.8012 30.4447 14.6063 30.3402 14.4371C30.2358 14.268 30.0864 14.1312 29.9086 14.0421L2.05074 0.113175Z" fill="white"/>
</svg>
