<svg width="31" height="34" viewBox="0 0 31 34" fill="none" xmlns="http://www.w3.org/2000/svg">
<path d="M21.1252 5.31242C21.125 4.06614 21.5116 2.85949 22.2173 1.90357C22.9229 0.947661 23.9027 0.30336 24.9853 0.083397C26.0678 -0.136566 27.1841 0.0818168 28.1389 0.700337C29.0937 1.31886 29.8262 2.29813 30.2082 3.46682C30.5902 4.63551 30.5974 5.9192 30.2285 7.09329C29.8596 8.26738 29.1382 9.25712 28.1904 9.88934C27.2426 10.5216 26.1289 10.756 25.0439 10.5516C23.959 10.3473 22.9721 9.71712 22.2558 8.77144L9.65972 15.4005C9.94929 16.4404 9.94929 17.5561 9.65972 18.5961L22.2558 25.2251C23.013 24.2272 24.0701 23.5834 25.2223 23.4184C26.3746 23.2534 27.5398 23.579 28.4922 24.3321C29.4447 25.0852 30.1165 26.2122 30.3775 27.4946C30.6385 28.777 30.4701 30.1235 29.9049 31.2733C29.3397 32.423 28.4179 33.294 27.3183 33.7175C26.2187 34.141 25.0195 34.0868 23.9531 33.5655C22.8868 33.0441 22.0291 32.0927 21.5465 30.8957C21.0638 29.6986 20.9905 28.3412 21.3408 27.0864L8.74474 20.4573C8.12119 21.2808 7.29004 21.8681 6.36311 22.1402C5.43618 22.4124 4.45793 22.3563 3.55996 21.9796C2.66198 21.6029 1.88737 20.9235 1.34031 20.033C0.793253 19.1424 0.5 18.0834 0.5 16.9983C0.5 15.9132 0.793253 14.8542 1.34031 13.9636C1.88737 13.073 2.66198 12.3937 3.55996 12.017C4.45793 11.6402 5.43618 11.5842 6.36311 11.8563C7.29004 12.1285 8.12119 12.7158 8.74474 13.5393L21.3408 6.9102C21.1974 6.39319 21.1247 5.85436 21.1252 5.31242Z" fill="black"/>
</svg>
