<svg width="16" height="24" viewBox="0 0 16 24" fill="none" xmlns="http://www.w3.org/2000/svg">
<path d="M10.2314 0C11.5954 0 12.9035 0.526784 13.8679 1.46447C14.8324 2.40215 15.3743 3.67392 15.3743 5V17C15.3743 17.9193 15.188 18.8295 14.8262 19.6788C14.4643 20.5281 13.934 21.2997 13.2654 21.9497C12.5968 22.5998 11.8031 23.1154 10.9296 23.4672C10.056 23.8189 9.11977 24 8.17425 24C7.22873 24 6.29247 23.8189 5.41893 23.4672C4.54539 23.1154 3.75166 22.5998 3.08308 21.9497C2.4145 21.2997 1.88415 20.5281 1.52232 19.6788C1.16048 18.8295 0.974251 17.9193 0.974251 17V9H3.03139V17C3.03139 18.3261 3.57323 19.5979 4.5377 20.5355C5.50217 21.4732 6.81028 22 8.17425 22C9.53822 22 10.8463 21.4732 11.8108 20.5355C12.7753 19.5979 13.3171 18.3261 13.3171 17V5C13.3171 4.60603 13.2373 4.21593 13.0822 3.85195C12.9271 3.48797 12.6999 3.15726 12.4133 2.87868C12.1268 2.6001 11.7866 2.37913 11.4122 2.22836C11.0379 2.0776 10.6366 2 10.2314 2C9.82617 2 9.42492 2.0776 9.05054 2.22836C8.67617 2.37913 8.336 2.6001 8.04946 2.87868C7.76293 3.15726 7.53564 3.48797 7.38056 3.85195C7.22549 4.21593 7.14568 4.60603 7.14568 5V17C7.14568 17.2652 7.25405 17.5196 7.44694 17.7071C7.63984 17.8946 7.90146 18 8.17425 18C8.44704 18 8.70867 17.8946 8.90156 17.7071C9.09445 17.5196 9.20282 17.2652 9.20282 17V6H11.26V17C11.26 17.7956 10.9349 18.5587 10.3562 19.1213C9.7775 19.6839 8.99263 20 8.17425 20C7.35587 20 6.571 19.6839 5.99232 19.1213C5.41364 18.5587 5.08854 17.7956 5.08854 17V5C5.08854 3.67392 5.63037 2.40215 6.59484 1.46447C7.55932 0.526784 8.86742 0 10.2314 0V0Z" fill="black"/>
</svg>
