<svg width="70" height="60" viewBox="0 0 70 60" fill="none" xmlns="http://www.w3.org/2000/svg">
<path d="M58.6251 0.00352833C60.1189 0.00352833 61.5981 0.300155 62.9781 0.87647C64.3582 1.45279 65.6122 2.2975 66.6685 3.3624C67.7247 4.42729 68.5626 5.6915 69.1343 7.08285C69.7059 8.4742 70.0001 9.96543 70.0001 11.4714V48.5321C70.0001 50.0381 69.7059 51.5293 69.1343 52.9207C68.5626 54.312 67.7247 55.5762 66.6685 56.6411C65.6122 57.706 64.3582 58.5507 62.9781 59.1271C61.5981 59.7034 60.1189 60 58.6251 60H11.3751C8.35828 60 5.46501 58.7918 3.33178 56.6411C1.19856 54.4905 0.00012207 51.5736 0.00012207 48.5321V11.4679C0.00012207 8.42642 1.19856 5.50951 3.33178 3.35887C5.46501 1.20822 8.35828 0 11.3751 0H58.6251V0.00352833ZM21.0526 18.9555C15.3581 18.9555 11.4136 23.9308 11.4136 29.9753C11.4136 36.0198 15.3616 41.0056 21.0526 41.0056C24.1571 41.0056 27.0131 39.4989 28.4411 36.7219L28.7106 36.1503L28.7911 35.9033L28.8541 35.6387L28.8821 35.3458V29.9824L28.8576 29.6542C28.7891 29.1931 28.5774 28.7658 28.2529 28.4336C27.9284 28.1014 27.5079 27.8814 27.0516 27.8052L26.6946 27.777H23.1876L22.8656 27.7982C22.4085 27.8678 21.9849 28.0814 21.6555 28.4084C21.326 28.7354 21.1077 29.1592 21.0316 29.6189L21.0001 29.9824L21.0246 30.307C21.1646 31.2526 21.8996 32.0007 22.8306 32.156L23.1876 32.1877H24.5036V34.7742L24.4826 34.8271C23.8211 35.9562 22.5506 36.5914 21.0526 36.5914C18.0216 36.5914 15.7886 33.7756 15.7886 29.9753C15.7886 26.1785 18.0181 23.3663 21.0526 23.3663C22.5261 23.3663 23.3626 23.5321 24.4126 24.0367C24.933 24.2743 25.525 24.2971 26.0619 24.1004C26.5988 23.9038 27.0382 23.5031 27.2859 22.9842C27.5337 22.4652 27.5703 21.8692 27.3878 21.3234C27.2054 20.7776 26.8184 20.3254 26.3096 20.0635C24.6191 19.2449 23.1421 18.9555 21.0526 18.9555ZM37.2016 19.386C36.6774 19.3862 36.1706 19.5762 35.7736 19.9213C35.3766 20.2665 35.1158 20.744 35.0386 21.2668L35.0141 21.5914V38.398L35.0386 38.7227C35.1168 39.2446 35.378 39.721 35.7749 40.0653C36.1718 40.4095 36.678 40.5989 37.2016 40.5989C37.7252 40.5989 38.2314 40.4095 38.6283 40.0653C39.0252 39.721 39.2865 39.2446 39.3646 38.7227L39.3891 38.398V21.5914L39.3646 21.2668C39.2875 20.744 39.0266 20.2665 38.6296 19.9213C38.2326 19.5762 37.7259 19.3862 37.2016 19.386ZM54.6771 19.4107L47.6876 19.386C47.1637 19.3841 46.6565 19.5718 46.2583 19.915C45.8601 20.2582 45.5973 20.7341 45.5176 21.2562L45.4931 21.5843V38.338L45.5141 38.6662C45.6541 39.6119 46.3891 40.3599 47.3201 40.5152L47.6806 40.5434L48.0026 40.5222C48.9406 40.3811 49.6826 39.6401 49.8366 38.7015L49.8681 38.338L49.8646 34.4037H53.7951L54.1171 34.3825C55.0551 34.2414 55.7971 33.5004 55.9546 32.5617L55.9826 32.2018L55.9581 31.8772C55.8903 31.4155 55.6789 30.9874 55.3543 30.6545C55.0298 30.3216 54.6089 30.1011 54.1521 30.0247L53.7951 29.9965H49.8646V23.8003L54.6596 23.8215L54.9851 23.8003C55.5056 23.7262 55.9823 23.4656 56.3278 23.0663C56.6734 22.6669 56.8647 22.1554 56.8668 21.6255C56.8689 21.0955 56.6817 20.5825 56.3394 20.1804C55.997 19.7782 55.5225 19.5138 55.0026 19.4354L54.6771 19.4107L47.6876 19.386L54.6771 19.4107Z" fill="white"/>
</svg>
