<svg width="25" height="25" viewBox="0 0 25 25" fill="none" xmlns="http://www.w3.org/2000/svg">
<path d="M10.4352 0.560486C12.9539 0.560486 15.3695 1.56107 17.1505 3.34211C18.9315 5.12316 19.932 7.53877 19.932 10.0575C19.932 12.1389 19.2622 14.0633 18.1276 15.6288L24.4915 21.9929C24.7666 22.264 24.9265 22.6309 24.9378 23.017C24.9491 23.4032 24.811 23.7788 24.5522 24.0656C24.2934 24.3524 23.9339 24.5282 23.5486 24.5565C23.1633 24.5847 22.782 24.4632 22.4841 24.2172L22.3702 24.1142L16.0064 17.7502C14.3871 18.9261 12.4364 19.5579 10.4352 19.5546C7.91655 19.5546 5.50101 18.554 3.72002 16.773C1.93903 14.9919 0.938477 12.5763 0.938477 10.0575C0.938477 7.53877 1.93903 5.12316 3.72002 3.34211C5.50101 1.56107 7.91655 0.560486 10.4352 0.560486ZM10.4352 3.55956C8.71193 3.55956 7.05919 4.24417 5.84062 5.46277C4.62204 6.68138 3.93746 8.33417 3.93746 10.0575C3.93746 11.7809 4.62204 13.4337 5.84062 14.6523C7.05919 15.8709 8.71193 16.5555 10.4352 16.5555C12.1586 16.5555 13.8113 15.8709 15.0299 14.6523C16.2485 13.4337 16.933 11.7809 16.933 10.0575C16.933 8.33417 16.2485 6.68138 15.0299 5.46277C13.8113 4.24417 12.1586 3.55956 10.4352 3.55956Z" fill="black"/>
</svg>
