<svg width="25" height="24" viewBox="0 0 25 24" fill="none" xmlns="http://www.w3.org/2000/svg">
<path d="M2.20776 0.0905401C2.06427 0.0187737 1.90352 -0.0112819 1.74379 0.00379241C1.58407 0.0188667 1.43178 0.0784656 1.30425 0.17581C1.17672 0.273154 1.07907 0.404335 1.0224 0.554432C0.96574 0.704528 0.95234 0.867515 0.983725 1.02485L3.38893 9.33936C3.43378 9.4943 3.52144 9.63345 3.64183 9.7408C3.76223 9.84816 3.91047 9.91936 4.06952 9.94623L13.8241 11.58C14.2835 11.6708 14.2835 12.3292 13.8241 12.42L4.06952 14.0538C3.91047 14.0806 3.76223 14.1518 3.64183 14.2592C3.52144 14.3666 3.43378 14.5057 3.38893 14.6606L0.983725 22.9752C0.95234 23.1325 0.96574 23.2955 1.0224 23.4456C1.07907 23.5957 1.17672 23.7268 1.30425 23.8242C1.43178 23.9215 1.58407 23.9811 1.74379 23.9962C1.90352 24.0113 2.06427 23.9812 2.20776 23.9095L24.4941 12.7663C24.6363 12.695 24.7558 12.5856 24.8394 12.4503C24.9229 12.315 24.9672 12.159 24.9672 12C24.9672 11.841 24.9229 11.685 24.8394 11.5497C24.7558 11.4144 24.6363 11.305 24.4941 11.2337L2.20776 0.0905401Z" fill="black"/>
</svg>
