<svg width="20" height="20" viewBox="0 0 20 20" fill="none" xmlns="http://www.w3.org/2000/svg">
<path fill-rule="evenodd" clip-rule="evenodd" d="M11.8505 0.0467738C12.0208 -0.011666 12.2051 -0.0154379 12.3777 0.0359851C12.5502 0.0874082 12.7024 0.191456 12.8129 0.333588L18.8602 8.10866C18.9782 8.26031 19.0422 8.44696 19.0422 8.63909C19.0422 8.83122 18.9782 9.01787 18.8602 9.16953L12.8129 16.9446C12.7024 17.0866 12.5502 17.1905 12.3778 17.2418C12.2053 17.2932 12.0211 17.2894 11.8509 17.2309C11.6807 17.1725 11.533 17.0624 11.4284 16.916C11.3238 16.7696 11.2675 16.5941 11.2674 16.4142V12.9672C6.62052 13.064 4.38821 13.946 3.26687 14.9049C2.20082 15.8163 2.00558 16.8884 1.80257 18.0115L1.74987 18.3009C1.7111 18.508 1.598 18.6938 1.43183 18.8233C1.26567 18.9528 1.0579 19.0172 0.84762 19.0042C0.637337 18.9913 0.439035 18.9019 0.29002 18.753C0.141006 18.604 0.0515521 18.4058 0.0384878 18.1955C-0.110102 15.8215 0.112783 12.3815 1.78961 9.50385C3.41719 6.71087 6.34753 4.56323 11.2674 4.33861V0.86402C11.2674 0.684027 11.3235 0.508513 11.4281 0.361995C11.5326 0.215476 11.6803 0.105271 11.8505 0.0467738Z" fill="black"/>
</svg>
