<svg width="73" height="67" viewBox="0 0 73 67" fill="none" xmlns="http://www.w3.org/2000/svg">
<path d="M68.2212 17.7856H4.58656C3.46303 17.7856 2.38551 18.2239 1.59105 19.004C0.796588 19.7842 0.350266 20.8423 0.350266 21.9456V62.3064C0.350266 63.4097 0.796588 64.4678 1.59105 65.248C2.38551 66.0282 3.46303 66.4664 4.58656 66.4664H68.2212C69.3447 66.4664 70.4222 66.0282 71.2167 65.248C72.0111 64.4678 72.4575 63.4097 72.4575 62.3064V21.9456C72.4575 20.8423 72.0111 19.7842 71.2167 19.004C70.4222 18.2239 69.3447 17.7856 68.2212 17.7856ZM50.3296 43.9626L28.3143 53.6103C27.9715 53.7616 27.5956 53.8263 27.2209 53.7985C26.8461 53.7708 26.4843 53.6514 26.1685 53.4512C25.8528 53.2511 25.593 52.9766 25.4128 52.6527C25.2327 52.3287 25.1379 51.9657 25.1371 51.5967V32.3013C25.1379 31.9323 25.2327 31.5692 25.4128 31.2453C25.593 30.9214 25.8528 30.6469 26.1685 30.4468C26.4843 30.2466 26.8461 30.1272 27.2209 30.0995C27.5956 30.0717 27.9715 30.1364 28.3143 30.2877L50.3296 39.9132C50.7294 40.0864 51.0694 40.37 51.308 40.7294C51.5467 41.0889 51.6738 41.5088 51.6738 41.9379C51.6738 42.3671 51.5467 42.7869 51.308 43.1464C51.0694 43.5059 50.7294 43.7895 50.3296 43.9626Z" fill="white"/>
<path d="M63.7599 2.29638C63.7599 1.70952 63.5225 1.1467 63.1 0.731722C62.6774 0.316748 62.1042 0.0836182 61.5066 0.0836182H11.9329C11.3353 0.0836182 10.7621 0.316748 10.3395 0.731722C9.91696 1.1467 9.67956 1.70952 9.67956 2.29638V4.50915H63.7599V2.29638Z" fill="white"/>
<path d="M68.2212 11.1472C68.2212 10.5604 67.9838 9.99753 67.5612 9.58255C67.1386 9.16758 66.5654 8.93445 65.9678 8.93445H7.38073C6.7831 8.93445 6.20996 9.16758 5.78737 9.58255C5.36479 9.99753 5.12738 10.5604 5.12738 11.1472V13.36H68.2212V11.1472Z" fill="white"/>
</svg>
