<svg width="21" height="18" viewBox="0 0 21 18" fill="none" xmlns="http://www.w3.org/2000/svg">
<path d="M18.1688 4.42366H11.1688L8.53882 1.24366C8.44577 1.12895 8.32846 1.03627 8.19532 0.972298C8.06219 0.908324 7.91653 0.874637 7.76882 0.87366H3.16882C2.51543 0.865639 1.88549 1.11686 1.41692 1.5723C0.948356 2.02775 0.679356 2.65031 0.668823 3.30366V15.4437C0.679356 16.097 0.948356 16.7196 1.41692 17.175C1.88549 17.6305 2.51543 17.8817 3.16882 17.8737H18.1688C18.8222 17.8817 19.4522 17.6305 19.9207 17.175C20.3893 16.7196 20.6583 16.097 20.6688 15.4437V6.85366C20.6583 6.2003 20.3893 5.57775 19.9207 5.1223C19.4522 4.66685 18.8222 4.41564 18.1688 4.42366ZM12.6688 12.3737H11.6688V13.3737C11.6688 13.6389 11.5635 13.8932 11.3759 14.0808C11.1884 14.2683 10.934 14.3737 10.6688 14.3737C10.4036 14.3737 10.1493 14.2683 9.96172 14.0808C9.77418 13.8932 9.66882 13.6389 9.66882 13.3737V12.3737H8.66882C8.40361 12.3737 8.14925 12.2683 7.96172 12.0808C7.77418 11.8932 7.66882 11.6389 7.66882 11.3737C7.66882 11.1084 7.77418 10.8541 7.96172 10.6666C8.14925 10.479 8.40361 10.3737 8.66882 10.3737H9.66882V9.37366C9.66882 9.10844 9.77418 8.85409 9.96172 8.66655C10.1493 8.47902 10.4036 8.37366 10.6688 8.37366C10.934 8.37366 11.1884 8.47902 11.3759 8.66655C11.5635 8.85409 11.6688 9.10844 11.6688 9.37366V10.3737H12.6688C12.934 10.3737 13.1884 10.479 13.3759 10.6666C13.5635 10.8541 13.6688 11.1084 13.6688 11.3737C13.6688 11.6389 13.5635 11.8932 13.3759 12.0808C13.1884 12.2683 12.934 12.3737 12.6688 12.3737Z" fill="white"/>
</svg>
